<mxfile host="app.diagrams.net" modified="2023-03-31T02:34:22.386Z" agent="Mozilla/5.0 (Windows NT 10.0; Win64; x64) AppleWebKit/537.36 (KHTML, like Gecko) Chrome/111.0.0.0 Safari/537.36" version="21.1.0" etag="skw8yGntAEuAvgNl2J5T" type="github">
  <diagram name="페이지-1" id="hMF89HmczMnlIiH2CeX2">
    <mxGraphModel>
      <root>
        <mxCell id="0" />
        <mxCell id="1" parent="0" />
      </root>
    </mxGraphModel>
  </diagram>
</mxfile>
